/* XPM */
static char *e966b2b9f4f1459cab4677d48c16f188hYrSKbvi1hQRPsNE[] = {
/* columns rows colors chars-per-pixel */
"16 16 51 1 ",
"  c #5F1B07",
". c #621906",
"X c #641B08",
"o c #671D08",
"O c #681E09",
"+ c #6B1E09",
"@ c #701E08",
"# c #732108",
"$ c #76210B",
"% c #79220A",
"& c #7D230B",
"* c #7F250A",
"= c #83240B",
"- c #86260B",
"; c #89250B",
": c #8F270A",
"> c #8A260C",
", c #8C280E",
"< c #91290C",
"1 c #94290C",
"2 c #972A0C",
"3 c #982B0D",
"4 c #9A2B0F",
"5 c #9C2C0E",
"6 c #A22D0D",
"7 c #A72F0F",
"8 c #A4310C",
"9 c #AE3110",
"0 c #AF3211",
"q c #96766D",
"w c #95796F",
"e c #9B7B72",
"r c #997D73",
"t c #9A7A74",
"y c #9B7F75",
"u c #9C7E76",
"i c #9D8177",
"p c #A0847A",
"a c #A88882",
"s c #A88A82",
"d c #A98B83",
"f c #AA8A84",
"g c #AB8B85",
"h c #AB8D85",
"j c #AD8D87",
"k c #AC9086",
"l c #AE9288",
"z c #AF9389",
"x c #B29289",
"c c #B5958C",
"v c #B4988E",
/* pixels */
"3:3d33,637;k2633",
"%%=v0%+X%#-k3%%&",
"%;Ok3&%O%%%j&,%;",
"iurleeeeeuecreei",
"-3333:3j6632333j",
"3%2%o%%k3%@%O%%k",
"3 -O%.%x8O-#%%%j",
"eeereuekeeeeeeek",
"533k2330532k330%",
"%%%d<%%%-;#s3-%%",
"-%-c3%.%o=%h2%=%",
"eeqjereerrrxeier",
"359233:a1022335c",
"3%$%%%od2#%%@&&j",
"2o-%%%%j3%%%=%&j",
"etwyeirkuteeyerd"
};
