/* XPM */
static char *_2f1cda6aced40dae1320ae701d3e1d1lNtdHrFrUAvR9yMZ[] = {
/* columns rows colors chars-per-pixel */
"16 16 232 2 ",
"   c #7E8786",
".  c #7F969E",
"X  c #2ECDF4",
"o  c #22CDF8",
"O  c #50C2DD",
"+  c #4DC4E4",
"@  c #4CCBEB",
"#  c #56C5E0",
"$  c #51C9E4",
"%  c #51CDE9",
"&  c #57D3EF",
"*  c #43D3F5",
"=  c #48D2F6",
"-  c #47D5F9",
";  c #50D6F9",
":  c #79DDF5",
">  c #868887",
",  c #8A8B8D",
"<  c #8F8E8C",
"1  c #92938E",
"2  c #878F91",
"3  c #938F90",
"4  c #889291",
"5  c #8C9091",
"6  c #8D9295",
"7  c #859A9D",
"8  c #85989E",
"9  c #889A9A",
"0  c #8A9A9A",
"q  c #8F999A",
"w  c #889A9E",
"e  c #8E999D",
"r  c #8D989E",
"t  c gray57",
"y  c #929091",
"u  c #939290",
"i  c #939192",
"p  c #929292",
"a  c #969291",
"s  c #949293",
"d  c #969293",
"f  c #939590",
"g  c #939592",
"h  c #969591",
"j  c #959492",
"k  c #959593",
"l  c #969593",
"z  c #949693",
"x  c #929395",
"c  c #959394",
"v  c #919594",
"b  c #939496",
"n  c #929697",
"m  c #949695",
"M  c #969497",
"N  c #989390",
"B  c #999594",
"V  c #9A9697",
"C  c #969895",
"Z  c #989896",
"A  c #959698",
"S  c #979799",
"D  c #999798",
"F  c #9C979B",
"G  c #979998",
"H  c #95999A",
"J  c #969A9B",
"K  c #919D9B",
"L  c #91999C",
"P  c #919B9D",
"I  c #929A9C",
"U  c #90999E",
"Y  c #95999C",
"T  c #979B9E",
"R  c #919D9D",
"E  c #919C9E",
"W  c #929C9E",
"Q  c #939D9F",
"!  c #989898",
"~  c gray60",
"^  c #9B9A98",
"/  c #9B9B99",
"(  c #9B999A",
")  c #9C9D98",
"_  c #999A9C",
"`  c #9D9B9C",
"'  c #999D9C",
"]  c #9A9E9F",
"[  c gray61",
"{  c #9C9C9E",
"}  c #9D9D9F",
"|  c #A39D9F",
" . c #849CA0",
".. c #8F9DA0",
"X. c #979FA1",
"o. c #959EA3",
"O. c #909DA5",
"+. c #A39EA2",
"@. c #84A2A4",
"#. c #95A7A7",
"$. c #99A2A1",
"%. c #9CA0A1",
"&. c #99A2A7",
"*. c #9FA3A4",
"=. c #94A7AB",
"-. c #99A4AA",
";. c #9AA5AB",
":. c #9CA7AB",
">. c #9CAAAA",
",. c #9EADB0",
"<. c #A2A0A1",
"1. c #A0A2A1",
"2. c #A2A2A0",
"3. c #A3A3A1",
"4. c #A0A1A3",
"5. c #A1A1A3",
"6. c #A4A3A1",
"7. c #A4A2A3",
"8. c #A6A2A3",
"9. c #A4A6A3",
"0. c #A2A6A7",
"q. c #A5A7A4",
"w. c #A7A7A5",
"e. c #A5A5A7",
"r. c #A7A7A7",
"t. c #A9A5A2",
"y. c #AAA4A6",
"u. c #A8A6A7",
"i. c #A3A8A4",
"p. c #A7A9A6",
"a. c #A8A9A4",
"s. c #A0A5A8",
"d. c #A5A6A8",
"f. c #A6A7A9",
"g. c #A7A7A9",
"h. c #A7A9A8",
"j. c #A7A8AA",
"k. c #A6AAAB",
"l. c #A4AEAF",
"z. c #A8AAA9",
"x. c #AAAAA8",
"c. c #A8A8AA",
"v. c #A9ABAA",
"b. c #AAAAAA",
"n. c gray67",
"m. c #ACABA9",
"M. c #ADAEA9",
"N. c #ACACAA",
"B. c #ABA9AC",
"V. c #AAAAAC",
"C. c #ADABAC",
"Z. c #ADABAE",
"A. c #ACAAAF",
"S. c #A9AFAD",
"D. c #ABACAE",
"F. c #AFADAE",
"G. c #ADAFAE",
"H. c #AFAFAF",
"J. c #B0A8A6",
"K. c #B0AAAA",
"L. c #B1ADAA",
"P. c #B0AFAB",
"I. c #B1ADAE",
"U. c #B0AEAF",
"Y. c #AEB0AD",
"T. c #AEB0AF",
"R. c #B1B0AC",
"E. c #B0B0AE",
"W. c #B0B2AF",
"Q. c #A3AEB2",
"!. c #A7ACB0",
"~. c #A9A8B0",
"^. c #AAAEB1",
"/. c #ABB1B1",
"(. c #AEB2B3",
"). c #AAB5B9",
"_. c #A8B7BA",
"`. c #ADB8BA",
"'. c #B0B2B1",
"]. c #B3B2B0",
"[. c #B3B3B1",
"{. c #B3B1B2",
"}. c #B2B0B3",
"|. c #B1B3B2",
" X c #B2B2B2",
".X c #B4B3B1",
"XX c #B6B2B3",
"oX c #B3B3B5",
"OX c #B1B2B6",
"+X c #B3B4B6",
"@X c #B3B7B6",
"#X c #B4B4B4",
"$X c #B6B6B4",
"%X c #B7B5B6",
"&X c #B5B7B6",
"*X c #B7B7B7",
"=X c #BBB7B6",
"-X c #B8B8B6",
";X c #B0B5B8",
":X c #B1B5B8",
">X c #B4B5BA",
",X c #B9B7BA",
"<X c #B5B9BC",
"1X c #B2BCBE",
"2X c #B9B9B9",
"3X c gray73",
"4X c #BEBCBD",
"5X c #BCBEBD",
"6X c #B5BEC3",
"7X c #8ED3E2",
"8X c #8AD6E6",
"9X c #8BD6E9",
"0X c #8FD8EB",
"qX c #8FDEEF",
"wX c #90D5E5",
"eX c #9ED1E4",
"rX c #93D4EA",
"tX c #91D4EE",
"yX c #93DCEF",
"uX c #98D9EF",
"iX c #9EDBED",
"pX c #82DEF5",
"aX c #BEDFE8",
"sX c #A0DDF2",
"dX c #8BE0F4",
"fX c #92E0F4",
"gX c #91E2F5",
"hX c #B4E2EF",
"jX c #B9E3EF",
"kX c #B4E4F2",
"lX c #BEECFB",
"zX c #C3E1EC",
/* pixels */
"'.` [ ' ` N.4X,XM ,XU.[ V Z ) '.",
"x.<.U.(.).'..X.Xq.'.$XG.4 ;.0.F ",
"V., i E # r 1 X.:X~ <.~.7X% :.m.",
"G.E.q.*.;.> 7.aXiXs.1 k E 0 m x.",
"N.+XoXk 1 a C T L b (.>XG..XC.m ",
"[ S g.j.l.kXrXr ) 4 jXsX^.u.< 7.",
"*XI.C.zXtXX * 9Xx.$.& qX;XoXC.g ",
"(.k.>.T E 8 8 L ~ H w K S D a.V.",
"/.rX+   y.k | j.kXqX_.L.U.^.$X3X",
"S.E w 4 K i T 9X; o @ L l D '.I.",
"x.u.E.r O ).[.$.=. ._.<X+Xg.a.V.",
"k 7.j.<.0 u.p.<.$X=XS.uXdX6X$Xk ",
"g.l l S 6 x i m eXlXfX= - yXX.u.",
"Y.E.g.8X$ &.+.i ..pX: @.#.Q.+X4X",
"V.j.0.e 8 m m i 7.,.6X.Xt.a Z x.",
"<.~ ' V 3 $X*XC.x.C.C.%.~ V x.'."
};
