/* XPM */
static char *_69b5c67af17498bc84ffd93f856ec6facwSFMO31XXTuNyt[] = {
/* columns rows colors chars-per-pixel */
"16 16 237 2 ",
"   c #3600A3",
".  c #3202A6",
"X  c #3503A4",
"o  c #3500A6",
"O  c #3900A7",
"+  c #3C00A4",
"@  c #3C04A7",
"#  c #3E0BA6",
"$  c #3B00A8",
"%  c #3B02A9",
"&  c #3A03A9",
"*  c #3A00AA",
"=  c #3B00AA",
"-  c #3A02AB",
";  c #3D00AA",
":  c #3C01AB",
">  c #3E00AB",
",  c #3F06AB",
"<  c #3B00AC",
"1  c #3B03AE",
"2  c #3E00AD",
"3  c #3F00AD",
"4  c #3D02AC",
"5  c #3C00AE",
"6  c #3F01AE",
"7  c #3F04AC",
"8  c #3C00B0",
"9  c #3E02B0",
"0  c #3F03B0",
"q  c #430BA4",
"w  c #4000AF",
"e  c #4202AE",
"r  c #4204AF",
"t  c #450BAD",
"y  c #4A0EAE",
"u  c #4000B1",
"i  c #4100B2",
"p  c #4303B2",
"a  c #4500B0",
"s  c #4500B1",
"d  c #4602B1",
"f  c #4502B2",
"g  c #4304B3",
"h  c #4406B1",
"j  c #4704B3",
"k  c #4302B6",
"l  c #4700B4",
"z  c #4601B4",
"x  c #4502B4",
"c  c #4702B5",
"v  c #4602B7",
"b  c #4505B4",
"n  c #4704B6",
"m  c #4802B3",
"M  c #4804B1",
"N  c #4A00B7",
"B  c #4805B4",
"V  c #4906B6",
"C  c #4808B4",
"Z  c #4A0BB4",
"A  c #4E09B4",
"S  c #4B0DB6",
"D  c #4E0CB4",
"F  c #4F0DB7",
"G  c #4600B8",
"H  c #4701B9",
"J  c #4602B9",
"K  c #4701BB",
"L  c #4602BB",
"P  c #4703BC",
"I  c #4800B9",
"U  c #4A03B9",
"Y  c #4C02BB",
"T  c #4B06B9",
"R  c #4F04B9",
"E  c #4E04BB",
"W  c #4A02BD",
"Q  c #4C01BD",
"!  c #4D02BE",
"~  c #4F03BF",
"^  c #4B05BD",
"/  c #4F05BC",
"(  c #4E07BD",
")  c #4F0DB9",
"_  c #5007B9",
"`  c #5006BB",
"'  c #5201BF",
"]  c #5105BD",
"[  c #5004BE",
"{  c #5304BF",
"}  c #5606BD",
"|  c #5507BF",
" . c #500ABB",
".. c #5208BD",
"X. c #570CBE",
"o. c #560DBE",
"O. c #560DBF",
"+. c #5A12BE",
"@. c #5E37A4",
"#. c #6038A8",
"$. c #6439AC",
"%. c #673AAF",
"&. c #673FAF",
"*. c #693AAE",
"=. c #6B3AB0",
"-. c #6D3AB0",
";. c #6E3BB4",
":. c #763FB4",
">. c #6540AA",
",. c #6545A8",
"<. c #6942AD",
"1. c #7340B6",
"2. c #7340B7",
"3. c #7241B7",
"4. c #7747B7",
"5. c #744BB5",
"6. c #7443B8",
"7. c #7545BB",
"8. c #7645BA",
"9. c #7E4AB9",
"0. c #5203C0",
"q. c #5105C1",
"w. c #5206C0",
"e. c #5307C1",
"r. c #5504C3",
"t. c #5607C2",
"y. c #5706C4",
"u. c #5607C4",
"i. c #560BC0",
"p. c #590BC1",
"a. c #590BC3",
"s. c #590EC1",
"d. c #5A0CC2",
"f. c #5C0DC1",
"g. c #5D0EC2",
"h. c #5B09C7",
"j. c #5D0BC5",
"k. c #5E0AC4",
"l. c #5B0FC7",
"z. c #5F0FC6",
"x. c #5E09C8",
"c. c #5E0CCA",
"v. c #5F0DCB",
"b. c #5D10C2",
"n. c #5D12C5",
"m. c #6108C6",
"M. c #630AC6",
"N. c #630DC8",
"B. c #620EC8",
"V. c #630FC9",
"C. c #610CCB",
"Z. c #610FCB",
"A. c #640EC9",
"S. c #640DCB",
"D. c #650ECC",
"F. c #670ECC",
"G. c #660FCF",
"H. c #6011C2",
"J. c #6313C4",
"K. c #6511C7",
"L. c #6314C5",
"P. c #6414C5",
"I. c #6518C6",
"U. c #681AC6",
"Y. c #6C1FC5",
"T. c #6311CB",
"R. c #6713C9",
"E. c #6610CB",
"W. c #6714C8",
"Q. c #6615CA",
"!. c #6711CC",
"~. c #6812CB",
"^. c #6910CC",
"/. c #6812CD",
"(. c #6B12CC",
"). c #6913CE",
"_. c #6B12CE",
"`. c #6F13CE",
"'. c #6B15CE",
"]. c #6E14CC",
"[. c #6E16CC",
"{. c #6E19CE",
"}. c #711FCC",
"|. c #701DCF",
" X c #6E15D1",
".X c #7517D0",
"XX c #7119D0",
"oX c #701BD0",
"OX c #7118D2",
"+X c #7219D3",
"@X c #7418D3",
"#X c #761BD2",
"$X c #751DD1",
"%X c #741CD2",
"&X c #751DD3",
"*X c #771CD3",
"=X c #771BD6",
"-X c #781DD2",
";X c #7A1ED9",
":X c #7020CD",
">X c #7620CD",
",X c #7825CD",
"<X c #7521D1",
"1X c #7F27D5",
"2X c #7C25D6",
"3X c #7D26D7",
"4X c #7C20D9",
"5X c #7C22D9",
"6X c #7E48C0",
"7X c #8148BD",
"8X c #836DAB",
"9X c #8324D6",
"0X c #8225D6",
"qX c #8127D6",
"wX c #8527D7",
"eX c #8228D5",
"rX c #862AD7",
"tX c #8122D8",
"yX c #8523D8",
"uX c #8427D8",
"iX c #8527DD",
"pX c #8626DF",
"aX c #8629D9",
"sX c #872ED8",
"dX c #882FD9",
"fX c #8A2ED9",
"gX c #8C2EDE",
"hX c #8F31DD",
"jX c #8E37DE",
"kX c #9037DD",
"lX c #9336DF",
"zX c #8E31E1",
"xX c #834CC1",
"cX c #824DC1",
"vX c #834EC4",
"bX c #894EC2",
"nX c #8F54C8",
/* pixels */
"Y.>XrXU.) S L.<X+.D :X:XZ # t 5.",
"fXzX.X2X{ 5 W w.g 2 ( k.J e v *.",
",XS.;XW.& r l.OXoX0.F.T.$ r { 8.",
"y ^ k.$ r {.0XC. XQ R.gXW.5 s :.",
"q m $ , oXkXs.0 W V 2 Q.iXL.& @.",
"s.t.J ~.jXg.$ $ + g 1 2 ^.aXR.<.",
"oX^. .$XB.i s v i } } 5 e B.!.-.",
"J.v 2 0.r.Q 2 r v.^.]./ $ v w.3.",
"P.I b c.M.' v B @XlX2Xv ; } F.cX",
"b./ / %X0Xs.Q x.].5X!.a.v p.B.8.",
"D T 5 A sXaXB. X=X*XyXO.. s R <.",
"L. XO.$ b 3XpXM.^.0XI.  C oX!.-.",
"{.*XuXi.X C +Xr.r...  h eXlXB.3.",
"n.a.5XeXR ; W J L 5 b %XsXb.J 6X",
"i t.G.*XM.I { B.s.v c.tXi.0 s %.",
",.2.7X:.=.8.cXnXbX1.xX9.$.#.>.8X"
};
