/* XPM */
static char *db8a0838eb6243aed213071cb2c7e0742jDKM92IXbZbm63B[] = {
/* columns rows colors chars-per-pixel */
"16 16 250 2 ",
"   c #22190A",
".  c #241808",
"X  c #271A0A",
"o  c #271B0B",
"O  c #27190C",
"+  c #271B0D",
"@  c #261F0D",
"#  c #281B0A",
"$  c #281B0B",
"%  c #2A1A0A",
"&  c #2A1A0B",
"*  c #291C09",
"=  c #291E0A",
"-  c #2D1E0B",
";  c #2B1B0C",
":  c #291B0E",
">  c #2A1D0C",
",  c #2A1D0D",
"<  c #2D1D0D",
"1  c #2C1C0F",
"2  c #2F1D0F",
"3  c #2C1F0E",
"4  c #3F1F0A",
"5  c #231314",
"6  c #221215",
"7  c #271515",
"8  c #2F1F10",
"9  c #2F1F12",
"0  c #2A1814",
"q  c #2A1D15",
"w  c #2C1E15",
"e  c #25161B",
"r  c #2A1B18",
"t  c #2B1B1B",
"y  c #2D1B1B",
"u  c #291E18",
"i  c #2B1E18",
"p  c #2A1C1B",
"a  c #301C1B",
"s  c #301E1A",
"d  c #321E1D",
"f  c #311D1E",
"g  c #331F1E",
"h  c #321E1F",
"j  c #2D200F",
"k  c #2F220F",
"l  c #31200E",
"z  c #3E250F",
"x  c #312010",
"c  c #312111",
"v  c #332113",
"b  c #332212",
"n  c #322215",
"m  c #352414",
"M  c #3D2312",
"N  c #3F2411",
"B  c #3E2413",
"V  c #382717",
"C  c #33201A",
"Z  c #342019",
"A  c #382819",
"S  c #392919",
"D  c #3F291B",
"F  c #332323",
"G  c #3B2621",
"H  c #38212B",
"J  c #431E0C",
"K  c #451F0C",
"L  c #461F0E",
"P  c #451F14",
"I  c #461E14",
"U  c #44210D",
"Y  c #46200D",
"T  c #45200E",
"R  c #472410",
"E  c #4A2312",
"W  c #4C2111",
"Q  c #4D2412",
"!  c #4B2614",
"~  c #4C2715",
"^  c #4E2716",
"/  c #452C16",
"(  c #482C17",
")  c #402218",
"_  c #472219",
"`  c #47251C",
"'  c #492318",
"]  c #48231A",
"[  c #472C19",
"{  c #482D18",
"}  c #51261F",
"|  c #512B18",
" . c #673D2F",
".. c #683D2C",
"X. c #6B4128",
"o. c #6E4229",
"O. c #71432C",
"+. c #70432E",
"@. c #6B4133",
"#. c #6C4131",
"$. c #6E4031",
"%. c #6D4232",
"&. c #6D4333",
"*. c #6A433E",
"=. c #704232",
"-. c #7D4534",
";. c #7C4435",
":. c #784C33",
">. c #724639",
",. c #73493B",
"<. c #764B38",
"1. c #784E38",
"2. c #794B3C",
"3. c #7F5233",
"4. c #7F5338",
"5. c #7E513E",
"6. c #794D42",
"7. c #7A5040",
"8. c #7B5145",
"9. c #7C5045",
"0. c #814739",
"q. c #81473B",
"w. c #86463C",
"e. c #874839",
"r. c #894B3E",
"t. c #805437",
"y. c #865837",
"u. c #81513A",
"i. c #84553B",
"p. c #80503C",
"a. c #885538",
"s. c #8B5A3A",
"d. c #8D5A3F",
"f. c #8D5C3C",
"g. c #915C3C",
"h. c #99613E",
"j. c #864C40",
"k. c #805243",
"l. c #885A40",
"z. c #855748",
"x. c #8E584C",
"c. c #8A5C4C",
"v. c #905D40",
"b. c #905C46",
"n. c #945A4F",
"m. c #975D52",
"M. c #8E6046",
"N. c #976243",
"B. c #9F6742",
"V. c #926349",
"C. c #996148",
"Z. c #9A644A",
"A. c #9C644D",
"S. c #9D674D",
"D. c #9E6B4E",
"F. c #9A6754",
"G. c #957055",
"H. c #9F725B",
"J. c #9D735D",
"K. c #9C715E",
"L. c #9E745E",
"P. c #A26F50",
"I. c #A16D55",
"U. c #A07157",
"Y. c #A47557",
"T. c #A3735C",
"R. c #AA7259",
"E. c #AC765C",
"W. c #B1775F",
"Q. c #9A6B65",
"!. c #9B7260",
"~. c #A67064",
"^. c #A47466",
"/. c #A77667",
"(. c #A67D61",
"). c #AF7863",
"_. c #A87965",
"`. c #AA7B67",
"'. c #AD7A67",
"]. c #AA7C64",
"[. c #A87E65",
"{. c #A97C67",
"}. c #AA7D66",
"|. c #A97F67",
" X c #AD7D66",
".X c #AC7E66",
"XX c #A27369",
"oX c #A27669",
"OX c #A5776A",
"+X c #A7776D",
"@X c #A9756A",
"#X c #AD7F68",
"$X c #AC7F6A",
"%X c #A97B6E",
"&X c #AD7E6C",
"*X c #AD7E6E",
"=X c #B27C62",
"-X c #B47F60",
";X c #B27F6A",
":X c #B67C68",
">X c #A97770",
",X c #A87971",
"<X c #AA7A70",
"1X c #AD7F70",
"2X c #B17F76",
"3X c #AC8063",
"4X c #A88066",
"5X c #AC8065",
"6X c #AD806B",
"7X c #B28067",
"8X c #B3816A",
"9X c #B4826B",
"0X c #B5836C",
"qX c #B4846E",
"wX c #B5856E",
"eX c #B7886E",
"rX c #AB8070",
"tX c #AC8171",
"yX c #B18771",
"uX c #B28872",
"iX c #B38973",
"pX c #B58873",
"aX c #B68976",
"sX c #B58D74",
"dX c #B88872",
"fX c #B98972",
"gX c #BB8C72",
"hX c #BA8E73",
"jX c #B98B74",
"kX c #BA8C74",
"lX c #BE8E78",
"zX c #BF9076",
"xX c #C3957E",
"cX c #C4967E",
"vX c #573E82",
"bX c #593F80",
"nX c #564081",
"mX c #594081",
"MX c #5F4D8B",
"NX c #5C4B8F",
"BX c #634F8E",
"VX c #624F8F",
"CX c #EEE7DF",
"ZX c #EFE8EF",
"AX c #EFEAEE",
"SX c #F1E8E1",
"DX c #F2EEE5",
"FX c #F2EDE7",
"GX c #EDEAF1",
"HX c #EFEAF0",
/* pixels */
"H g s s s g t y 5 5 7 e p i q F ",
"C 2 $ 2 9 j $ #   . o O $ $ , w ",
"y 2 # o $ , j l R N N M , , ; i ",
"q @ x n x j A A / [ [ / n x # q ",
"0 j G.(.[.5XaXyX[.[.#X4XI.V.m s ",
"h A 4XgXfXxXxXxXfXfXlXjX).I.) D ",
"Q.J. X8X3X[.#X*XT.!.dXqXD.A.M.c.",
"+X#XsXaXoX^.`._.J.!.tXtXT.U.D.F.",
"<XpXDXHXNXbXOX:XeX1XnXVXHXCX6XOX",
">XyXDXHXMXbX~.).9X<XmXBXHXSX[.^.",
"m.A.;X8X2X,X>.#.%.,.;X9XY.Y.i.5.",
"m.C.R.E.'.OX%.....+.=X-XB.g.t.1.",
"x.b.N.v.! ! 0.r.r.q.^ | s.s.u.2.",
"z.i.g.a.U J -.e.w.-.T R a.g.p.9.",
"%.+.o.o.T J T P E W K Q t.t.:.1.",
"*.&.@. .` ) P I ' _ ' } 6.k.2.9."
};
